<?xml version="1.0" encoding="utf-8"?>
<!-- Generator: Adobe Illustrator 27.0.1, SVG Export Plug-In . SVG Version: 6.00 Build 0)  -->
<svg version="1.1" id="Layer_1" xmlns="http://www.w3.org/2000/svg" xmlns:xlink="http://www.w3.org/1999/xlink" x="0px" y="0px"
	 viewBox="0 0 480.3 70.1" style="enable-background:new 0 0 480.3 70.1;" xml:space="preserve">
<style type="text/css">
	.st0{fill:#FFFFFF;}
</style>
<g>
	<g>
		<g>
			<rect x="435.8" y="2.1" class="st0" width="1.1" height="1.1"/>
			<rect x="459.7" y="16.4" class="st0" width="1.1" height="1.1"/>
			<path class="st0" d="M473.6,15.1c0.3-0.1,0.5-0.3,0.7-0.6c0.2-0.3,0.3-0.6,0.4-0.9c0.1-0.4,0.1-0.8,0.1-1.2v-8h-1.1v8
				c0,0.3,0,0.6-0.1,0.8c0,0.2-0.1,0.4-0.2,0.5c-0.1,0.1-0.2,0.2-0.3,0.3c-0.1,0.1-0.3,0.1-0.5,0.1c-0.1,0-0.2,0-0.3,0
				c-0.1,0-0.2,0-0.3-0.1l-0.3,1.1c0.3,0.1,0.6,0.1,0.9,0.1C473,15.3,473.3,15.3,473.6,15.1z"/>
			<path class="st0" d="M469.7,2.4h-1.6V2.1c0-0.1,0-0.3,0.1-0.3c0.1-0.1,0.2-0.1,0.4-0.1h0.8V0.9h-0.8c-0.4,0-0.8,0.1-1,0.3
				c-0.2,0.2-0.4,0.6-0.4,1.1v0.9h2.5V2.4z"/>
			<rect x="457.4" y="16.4" class="st0" width="1.1" height="1.1"/>
			<rect x="438.1" y="2.1" class="st0" width="1.1" height="1.1"/>
			<path class="st0" d="M464.5,11.3c0.4,0.3,0.9,0.5,1.5,0.7c0.6,0.1,1.2,0.2,1.8,0.2h0.3l0.4-0.8v1.1c0,0.6-0.2,1-0.5,1.3
				c-0.3,0.3-0.8,0.4-1.4,0.4c-0.4,0-0.7,0-1-0.1c-0.3-0.1-0.6-0.2-1-0.3l-0.4,1.1c0.4,0.2,0.8,0.3,1.2,0.4c0.3,0.1,0.7,0.1,1,0.1
				c1.1,0,1.9-0.3,2.4-0.8c0.5-0.5,0.8-1.2,0.8-2.1v-8h-1.8c-0.7,0-1.4,0.1-1.9,0.3c-0.6,0.2-1.1,0.5-1.5,0.8
				c-0.4,0.3-0.7,0.8-1,1.2c-0.2,0.5-0.3,1-0.3,1.6c0,0.7,0.1,1.3,0.4,1.7C463.7,10.6,464.1,11,464.5,11.3z M464.5,7.2
				c0.2-0.3,0.4-0.6,0.7-0.9c0.3-0.2,0.6-0.4,1-0.6c0.4-0.1,0.7-0.2,1.1-0.2v0h1.9l-0.7,0.3V11h-1.2c-0.4,0-0.8-0.1-1.2-0.2
				c-0.4-0.1-0.7-0.3-1-0.5c-0.3-0.2-0.5-0.5-0.7-0.8c-0.2-0.3-0.2-0.7-0.2-1.1C464.2,7.9,464.3,7.6,464.5,7.2z"/>
			<path class="st0" d="M436.1,15.2h2.4v-0.9c0,0,0,0.1,0.1,0.1c0.2,0.3,0.4,0.4,0.7,0.6c0.3,0.1,0.6,0.2,1,0.2h20.9V4.4h-1.1v9.7
				h-1.2h-18.5c-0.2,0-0.4,0-0.5-0.1c-0.1-0.1-0.2-0.2-0.3-0.3c-0.1-0.1-0.1-0.3-0.2-0.5c0-0.2,0-0.5,0-0.8V4.4h-3.1
				c-3.2,0-5.3,2.5-5.3,5.4v0C430.8,12.7,433,15.2,436.1,15.2z M432.1,9.8c0-2.4,1.7-4.3,4.1-4.3h2.7l-0.7,0.4v6.5
				c0,0.4,0,0.9,0.1,1.2c0,0.2,0.1,0.4,0.2,0.6l-2.2,0C433.8,14.1,432.1,12.2,432.1,9.8L432.1,9.8z"/>
			<polygon class="st0" points="425.1,12.3 425.6,13.7 418.3,4.4 417.2,4.4 417.2,15.2 418.4,15.2 418.4,7.1 417.7,5.5 425.3,15.2 
				426.3,15.2 426.3,4.4 425.1,4.4 			"/>
			<path class="st0" d="M441.4,32.3L448,26v-4.3h-17.7v4.9h9.1l3.4-2.2l-8.4,8.4l0.9,3.7h2.4c3.2,0,5.1,1.2,5.1,3.3v0.1
				c0,1.9-1.5,3.2-3.7,3.2c-2.7,0-4.5-1.1-6.3-3.1l-4,3.8c2.2,2.6,5.5,4.5,10.2,4.5c5.8,0,9.4-3.6,9.4-8.5v-0.1
				C448.5,34.8,445,32.9,441.4,32.3z"/>
			<path class="st0" d="M409.7,4.2c-3.3,0-5.5,2.6-5.5,5.6v0c0,3,2.2,5.5,5.5,5.5s5.5-2.6,5.5-5.6v0C415.2,6.8,413,4.2,409.7,4.2z
				 M413.9,9.8c0,2.4-1.8,4.4-4.2,4.4c-2.5,0-4.2-2-4.2-4.4v0c0-2.4,1.8-4.4,4.2-4.4C412.1,5.3,413.9,7.3,413.9,9.8L413.9,9.8z"/>
			<path class="st0" d="M463.9,21.3c-8.1,0-13.9,6.1-13.9,13.5v0.1c0,7.4,5.8,13.4,13.9,13.4c8.1,0,13.9-6.1,13.9-13.5v-0.1
				C477.7,27.3,471.9,21.3,463.9,21.3z M471.7,34.8c0,4.5-3.2,8.1-7.8,8.1c-4.6,0-7.9-3.7-7.9-8.2v-0.1c0-4.5,3.2-8.1,7.8-8.1
				S471.7,30.3,471.7,34.8L471.7,34.8z"/>
			<rect x="400.9" y="4.4" class="st0" width="1.2" height="10.7"/>
			<path class="st0" d="M381.4,44.8l1.1-0.9l5.7-4.4c4.6-3.6,6.9-5.7,6.9-10.1v-0.1c0-4.9-3.6-8.1-9-8.1c-4.7,0-7.2,1.9-9.7,5.4
				l4,3.2c1.9-2.4,3.3-3.5,5.3-3.5c2.1,0,3.5,1.2,3.5,3.4c0,2.2-1.3,3.6-4.5,6.3l-8.7,7.1v4.5h19.3v-5h-10L381.4,44.8z"/>
			<polygon class="st0" points="381.5,15.2 386.1,4.4 384.8,4.4 381.1,13.2 381.2,14.4 380.9,13.7 377.8,6 377.1,4.4 375.7,4.4 
				380.4,15.2 			"/>
			<rect x="387.7" y="4.4" class="st0" width="1.2" height="10.7"/>
			<path class="st0" d="M395.4,9.2c-2.4-0.5-2.9-1.1-2.9-2.1v0c0-1,0.9-1.7,2.3-1.7c1.1,0,2.1,0.4,3.1,1.2l0.7-0.9
				c-1.1-0.9-2.2-1.3-3.8-1.3c-2,0-3.5,1.2-3.5,2.9v0c0,1.8,1.1,2.6,3.6,3.1c2.3,0.5,2.8,1,2.8,2v0c0,1.1-1,1.8-2.4,1.8
				c-1.5,0-2.6-0.5-3.7-1.5l-0.8,0.9c1.3,1.2,2.7,1.7,4.4,1.7c2.1,0,3.7-1.2,3.7-3v0C398.9,10.6,397.8,9.7,395.4,9.2z"/>
		</g>
		<polygon class="st0" points="411,19.5 412.3,20.8 411,22.1 409.7,20.9 		"/>
		<polygon class="st0" points="414,20.9 415.3,22.1 416.6,20.8 415.3,19.5 		"/>
		<polygon class="st0" points="412.1,22.5 413.2,23.5 414.1,22.5 413.1,21.5 		"/>
		<polygon class="st0" points="415.9,23.1 416.9,24.1 417.9,23 416.9,22.1 		"/>
		<polygon class="st0" points="410.4,24.1 411.5,25.1 412.5,24.1 411.4,23.1 		"/>
		<polygon class="st0" points="413.9,24.2 414.9,25.2 415.9,24.2 414.9,23.2 		"/>
		<polygon class="st0" points="412.5,25.4 413.3,26.1 414,25.4 413.2,24.7 		"/>
		<polygon class="st0" points="415.3,25.9 416,26.6 416.7,25.9 416,25.2 		"/>
		
			<rect x="421.4" y="20.2" transform="matrix(0.9836 -0.1803 0.1803 0.9836 3.0743 76.5384)" class="st0" width="2.3" height="2.3"/>
		
			<rect x="418.5" y="21.2" transform="matrix(0.9836 -0.1801 0.1801 0.9836 2.8758 75.9017)" class="st0" width="1.8" height="1.8"/>
		<rect x="422" y="23.7" transform="matrix(0.9836 -0.1804 0.1804 0.9836 2.4944 76.6844)" class="st0" width="1.8" height="1.8"/>
		<rect x="419.4" y="24" transform="matrix(0.9836 -0.1802 0.1802 0.9836 2.4231 76.1237)" class="st0" width="1.4" height="1.4"/>
		
			<rect x="422.2" y="26.7" transform="matrix(0.9836 -0.1802 0.1802 0.9836 1.9876 76.6601)" class="st0" width="1.4" height="1.4"/>
		
			<rect x="417.3" y="24.6" transform="matrix(0.9836 -0.1802 0.1802 0.9836 2.2858 75.7536)" class="st0" width="1.4" height="1.4"/>
		
			<rect x="419.9" y="26.4" transform="matrix(0.9836 -0.1802 0.1802 0.9836 1.9964 76.2435)" class="st0" width="1.4" height="1.4"/>
		<rect x="418.1" y="26.6" transform="matrix(0.9836 -0.1803 0.1803 0.9836 1.9683 75.9205)" class="st0" width="1" height="1"/>
		<rect x="420" y="28.7" transform="matrix(0.9837 -0.1798 0.1798 0.9837 1.6076 76.0838)" class="st0" width="1" height="1"/>
		<polygon class="st0" points="427.9,27.8 427,29.9 429,30.8 430,28.8 		"/>
		<polygon class="st0" points="425,26.8 424.2,28.5 425.9,29.3 426.7,27.6 		"/>
		<polygon class="st0" points="426.4,30.9 425.6,32.6 427.2,33.4 428,31.7 		"/>
		<polygon class="st0" points="424.2,29.7 423.6,31 424.9,31.6 425.5,30.3 		"/>
		<polygon class="st0" points="424.9,33.4 424.2,34.7 425.5,35.3 426.1,34 		"/>
		<polygon class="st0" points="422.2,28.9 421.5,30.2 422.8,30.8 423.4,29.5 		"/>
		<polygon class="st0" points="423.2,31.9 422.5,33.2 423.8,33.8 424.4,32.5 		"/>
		<polygon class="st0" points="421.6,31 421.2,31.9 422.1,32.3 422.5,31.4 		"/>
		<rect x="421.7" y="33.9" transform="matrix(0.4297 -0.903 0.903 0.4297 209.6861 400.8379)" class="st0" width="1" height="1"/>
		<polygon class="st0" points="429.1,37.7 427.1,38.8 428.2,40.8 430.2,39.7 		"/>
		<polygon class="st0" points="427.2,35.2 425.6,36.1 426.5,37.7 428.1,36.8 		"/>
		<polygon class="st0" points="426,39.3 424.3,40.2 425.2,41.8 426.8,40.9 		"/>
		<polygon class="st0" points="424.9,37 423.7,37.7 424.4,38.9 425.6,38.3 		"/>
		<polygon class="st0" points="423.2,40.4 422,41.1 422.7,42.4 423.9,41.7 		"/>
		<polygon class="st0" points="423.7,35.2 422.5,35.9 423.1,37.1 424.4,36.4 		"/>
		<polygon class="st0" points="422.8,38.2 421.5,38.9 422.2,40.1 423.5,39.4 		"/>
		<polygon class="st0" points="422,36.5 421.2,37 421.6,37.9 422.5,37.4 		"/>
		<polygon class="st0" points="420.7,39 419.8,39.5 420.3,40.3 421.2,39.9 		"/>
		
			<rect x="421.8" y="46.2" transform="matrix(0.1226 -0.9925 0.9925 0.1226 324.0733 461.2222)" class="st0" width="2.3" height="2.3"/>
		
			<rect x="422.2" y="43.1" transform="matrix(0.123 -0.9924 0.9924 0.123 327.3965 458.5514)" class="st0" width="1.8" height="1.8"/>
		
			<rect x="418.8" y="45.7" transform="matrix(0.123 -0.9924 0.9924 0.123 321.8241 457.3848)" class="st0" width="1.8" height="1.8"/>
		
			<rect x="419.7" y="43.3" transform="matrix(0.1227 -0.9924 0.9924 0.1227 325.1899 455.829)" class="st0" width="1.4" height="1.4"/>
		
			<rect x="416.3" y="45.1" transform="matrix(0.1227 -0.9924 0.9924 0.1227 320.4445 454.0715)" class="st0" width="1.4" height="1.4"/>
		
			<rect x="419.8" y="41.1" transform="matrix(0.123 -0.9924 0.9924 0.123 327.2946 453.9745)" class="st0" width="1.4" height="1.4"/>
		<rect x="417.3" y="43" transform="matrix(0.123 -0.9924 0.9924 0.123 323.2194 453.1212)" class="st0" width="1.4" height="1.4"/>
		<rect x="418.1" y="41.2" transform="matrix(0.1228 -0.9924 0.9924 0.1228 325.7605 452.0437)" class="st0" width="1" height="1"/>
		<rect x="415.6" y="42.4" transform="matrix(0.1227 -0.9924 0.9924 0.1227 322.3888 450.5998)" class="st0" width="1" height="1"/>
		<polygon class="st0" points="415.1,50.5 413.5,48.9 411.9,50.6 413.6,52.2 		"/>
		<polygon class="st0" points="414.8,18.5 413.2,17 411.6,18.6 413.3,20.2 		"/>
		<polygon class="st0" points="416.9,48 415.6,46.7 414.3,48.1 415.7,49.3 		"/>
		<polygon class="st0" points="412.6,48.1 411.3,46.8 410,48.2 411.4,49.4 		"/>
		<polygon class="st0" points="414.5,46.4 413.4,45.4 412.4,46.4 413.5,47.4 		"/>
		<polygon class="st0" points="410.7,45.9 409.6,44.9 408.7,45.9 409.7,46.9 		"/>
		<polygon class="st0" points="415.8,44.6 414.8,43.7 413.8,44.7 414.8,45.7 		"/>
		<polygon class="st0" points="412.7,44.7 411.6,43.7 410.6,44.8 411.7,45.7 		"/>
		<polygon class="st0" points="414,43.5 413.3,42.8 412.6,43.5 413.3,44.2 		"/>
		<polygon class="st0" points="411.3,43 410.5,42.3 409.8,43 410.6,43.7 		"/>
		
			<rect x="402.9" y="46.6" transform="matrix(0.9805 -0.1965 0.1965 0.9805 -1.4957 80.3235)" class="st0" width="2.3" height="2.3"/>
		<rect x="406.3" y="46" transform="matrix(0.9805 -0.1964 0.1964 0.9805 -1.2783 80.8851)" class="st0" width="1.8" height="1.8"/>
		
			<rect x="402.8" y="43.5" transform="matrix(0.9805 -0.1967 0.1967 0.9805 -0.8553 80.2544)" class="st0" width="1.8" height="1.8"/>
		
			<rect x="405.7" y="43.6" transform="matrix(0.9805 -0.1964 0.1964 0.9805 -0.7834 80.6801)" class="st0" width="1.4" height="1.4"/>
		<rect x="407.8" y="43" transform="matrix(0.9805 -0.1964 0.1964 0.9805 -0.6236 81.08)" class="st0" width="1.4" height="1.4"/>
		
			<rect x="405.2" y="41.2" transform="matrix(0.9805 -0.1964 0.1964 0.9805 -0.3214 80.5381)" class="st0" width="1.4" height="1.4"/>
		<rect x="407.5" y="41.4" transform="matrix(0.9806 -0.1962 0.1962 0.9806 -0.2818 80.8671)" class="st0" width="1" height="1"/>
		
			<rect x="405.5" y="39.3" transform="matrix(0.9805 -0.1967 0.1967 0.9805 9.470379e-02 80.648)" class="st0" width="1" height="1"/>
		<polygon class="st0" points="398.6,41.3 399.5,39.3 397.4,38.3 396.5,40.4 		"/>
		<polygon class="st0" points="401.5,42.3 402.3,40.6 400.6,39.8 399.8,41.5 		"/>
		<polygon class="st0" points="400.1,38.2 400.8,36.5 399.2,35.8 398.4,37.4 		"/>
		
			<rect x="401.2" y="37.7" transform="matrix(0.4149 -0.9098 0.9098 0.4149 200.1509 388.1889)" class="st0" width="1.4" height="1.4"/>
		<polygon class="st0" points="404,42.7 404.6,41.4 403.3,40.8 402.7,42.1 		"/>
		
			<rect x="400.5" y="34" transform="matrix(0.4151 -0.9098 0.9098 0.4151 203.0892 385.3155)" class="st0" width="1.4" height="1.4"/>
		
			<rect x="403.3" y="38.5" transform="matrix(0.4151 -0.9098 0.9098 0.4151 200.6349 390.4578)" class="st0" width="1.4" height="1.4"/>
		
			<rect x="402.2" y="35.5" transform="matrix(0.4154 -0.9096 0.9096 0.4154 202.6055 387.7109)" class="st0" width="1.4" height="1.4"/>
		<polygon class="st0" points="404.9,38.1 405.3,37.1 404.4,36.7 403.9,37.6 		"/>
		<polygon class="st0" points="404.5,35.3 404.9,34.4 404,34 403.6,34.9 		"/>
		<polygon class="st0" points="397.3,31.5 399.3,30.4 398.1,28.4 396.1,29.5 		"/>
		<polygon class="st0" points="399.1,34 400.7,33 399.8,31.5 398.2,32.4 		"/>
		<polygon class="st0" points="400.4,29.8 402,28.9 401,27.3 399.5,28.2 		"/>
		<polygon class="st0" points="401.4,32.1 402.7,31.4 402,30.1 400.7,30.9 		"/>
		<polygon class="st0" points="403,28.6 404.3,27.9 403.6,26.7 402.3,27.4 		"/>
		<polygon class="st0" points="402.7,33.9 403.9,33.2 403.2,31.9 402,32.6 		"/>
		<polygon class="st0" points="403.6,30.9 404.8,30.2 404.1,28.9 402.9,29.6 		"/>
		<polygon class="st0" points="404.3,32.5 405.2,32 404.7,31.1 403.8,31.6 		"/>
		<polygon class="st0" points="405.6,30 406.5,29.5 406,28.7 405.1,29.2 		"/>
		
			<rect x="402.1" y="20.6" transform="matrix(0.1063 -0.9943 0.9943 0.1063 338.791 420.433)" class="st0" width="2.3" height="2.3"/>
		
			<rect x="402.2" y="24.1" transform="matrix(0.1064 -0.9943 0.9943 0.1064 335.3266 423.1756)" class="st0" width="1.8" height="1.8"/>
		
			<rect x="405.6" y="21.5" transform="matrix(0.1064 -0.9943 0.9943 0.1064 340.9786 424.213)" class="st0" width="1.8" height="1.8"/>
		
			<rect x="405.1" y="24.3" transform="matrix(0.1065 -0.9943 0.9943 0.1065 337.7341 425.8917)" class="st0" width="1.4" height="1.4"/>
		
			<rect x="408.5" y="22.5" transform="matrix(0.1061 -0.9944 0.9944 0.1061 342.6952 427.5678)" class="st0" width="1.4" height="1.4"/>
		
			<rect x="405.1" y="26.5" transform="matrix(0.1065 -0.9943 0.9943 0.1065 335.5095 427.7856)" class="st0" width="1.4" height="1.4"/>
		
			<rect x="407.6" y="24.6" transform="matrix(0.1065 -0.9943 0.9943 0.1065 339.643 428.5444)" class="st0" width="1.4" height="1.4"/>
		<rect x="407.2" y="26.7" transform="matrix(0.1064 -0.9943 0.9943 0.1064 337.2266 429.7188)" class="st0" width="1" height="1"/>
		<rect x="409.7" y="25.5" transform="matrix(0.1058 -0.9944 0.9944 0.1058 340.9428 431.14)" class="st0" width="1" height="1"/>
		<path class="st0" d="M420.4,36c-0.2-0.1-0.5-0.3-0.9-0.4c-0.6-0.2-1.5-0.3-2.5-0.2c-0.3,0.1-0.7,0.1-1.1,0.3c0,0-0.1,0-0.1,0
			c-0.2,0.1-0.4,0.2-0.6,0.3c-0.2,0.1-0.3,0.2-0.5,0.3c-0.4,0.2-0.7,0.5-1.1,0.7c-0.4-2.4-0.2-4.7-0.1-5.8c0,0,0,0,0,0
			c0.9,0.5,0.6,2.1,0.4,2.5c0,0,0,0,0,0c1.1-1.3,0.5-2.7,0.3-3c0,0,0,0,0,0c0.2,0.1,0.3,0.3,0.4,0.4c0.3,0.4,0.5,0.9,0.5,1.3
			c0,0.2,0,0.4,0,0.6c0,0,0,0.1,0,0.1c0,0,0,0,0,0c0,0,0,0,0,0c0.3-0.6,0.4-1.4,0-2.3c-0.1-0.2-0.3-0.5-0.5-0.7
			c-0.1-0.1-0.1-0.1-0.2-0.2c0,0,0,0,0,0c0.1,0,0.1,0,0.2,0.1c0.2,0.1,0.3,0.2,0.5,0.3c0.3,0.2,0.5,0.6,0.7,0.9
			c0.1,0.3,0.2,0.6,0.2,0.8c0,0,0,0,0,0c0.2-0.7,0.1-1.3-0.2-1.7c-0.2-0.3-0.4-0.5-0.7-0.7c-0.2-0.1-0.3-0.2-0.5-0.2
			c-0.1,0-0.2,0-0.2-0.1c0,0,0,0,0,0c0.1,0,0.2,0,0.2,0c0.2,0,0.3,0,0.5,0c0.3,0.1,0.5,0.2,0.7,0.3c0.3,0.2,0.4,0.4,0.5,0.5
			c0,0,0,0,0,0c0-0.4-0.2-0.7-0.5-0.9c-0.2-0.2-0.4-0.3-0.7-0.4c-0.2,0-0.3-0.1-0.5-0.1c-0.2,0-0.4,0-0.6,0.1c0,0,0,0,0,0
			c0.2-0.2,0.4-0.4,0.6-0.4c0.2,0,0.3-0.1,0.5-0.1c0.2,0,0.3,0,0.4,0.1c0,0,0,0,0,0c-0.1-0.1-0.3-0.2-0.4-0.3
			c-0.2-0.1-0.3-0.1-0.5-0.2c-0.4,0-0.9,0.1-1.2,0.6c0,0,0,0,0,0c-0.1-0.1-0.1-0.2-0.2-0.3c-0.1-0.3-0.2-0.6-0.3-0.9c0,0,0,0,0,0
			c-0.1,0.3-0.1,0.6-0.3,0.9c-0.1,0.1-0.1,0.2-0.2,0.3c0,0,0,0,0,0c-0.5-0.8-1.5-0.8-2.1-0.1c0,0,0,0,0,0c0.4-0.2,1.1-0.1,1.5,0.4
			c0,0,0,0,0,0c-0.6-0.2-1.5-0.1-1.9,0.5c-0.2,0.2-0.3,0.5-0.3,0.8c0,0,0,0,0,0c0-0.1,0.1-0.2,0.3-0.4c0.3-0.2,0.8-0.5,1.6-0.4
			c0,0,0,0,0,0c-0.4,0.1-1.2,0.4-1.6,1.2c-0.1,0.4-0.2,0.8,0,1.4c0,0,0,0,0,0c0,0,0,0,0,0c0-0.8,0.4-1.8,1.5-2c0,0,0,0,0,0
			c-1.2,1.1-1.1,2.4-0.7,3.1c0,0,0,0,0,0c-0.1-0.6-0.1-1.6,0.9-2.4c0,0,0,0,0,0c-0.2,0.4-0.7,1.8,0.3,3c0,0,0,0,0,0
			c-0.2-0.4-0.4-1.9,0.4-2.5c0,0,0,0,0,0c0.1,1.1,0.3,3.4-0.1,5.8c-0.7-0.5-1.4-1-2.1-1.3c-0.1,0-0.2-0.1-0.3-0.1
			c-0.7-0.2-1.4-0.3-2-0.3c-1,0-1.7,0.3-2.1,0.5c-0.1,0-0.2,0.1-0.2,0.1c0,0,0,0,0,0c0.1,0,0.1,0,0.2-0.1c0.7-0.2,1.4-0.3,2.1-0.2
			c0.7,0.1,1.4,0.3,2,0.5c0.9,0.4,1.7,1,2.4,1.6c-1,0.9-1.9,1.8-2.4,2.1c0,0-0.1,0-0.1,0c-0.1-0.2-0.3-0.3-0.6-0.2
			c-0.2,0-0.4,0.2-0.4,0.4c0,0.2,0,0.4,0.1,0.5c0.3,0.3,0.6,0.3,1,0.1c0.7-0.3,1.6-1.2,2.7-2.2c0.1-0.1,0.2-0.2,0.3-0.2
			c0.1,0.1,0.2,0.2,0.3,0.2c0.5,0.4,0.9,0.9,1.4,1.3c0.2,0.2,0.3,0.3,0.5,0.4c0.2,0.2,0.5,0.4,0.7,0.5c0.4,0.2,0.8,0.2,1.1,0
			c0,0,0,0,0,0c0.1-0.1,0.2-0.3,0.1-0.5c0-0.1-0.1-0.2-0.2-0.3c-0.1-0.1-0.2-0.1-0.3-0.1c-0.2-0.1-0.5,0-0.6,0.2
			c-0.1,0-0.1-0.1-0.2-0.1c-0.2-0.1-0.4-0.3-0.7-0.5c-0.2-0.1-0.3-0.3-0.5-0.4c-0.3-0.3-0.7-0.6-1.1-1c0.3-0.3,0.7-0.6,1.1-0.8
			c0.2-0.1,0.3-0.2,0.5-0.3c0.2-0.1,0.4-0.3,0.7-0.4c0.3-0.2,0.7-0.3,1.1-0.4c0.8-0.2,1.6-0.3,2.5-0.2
			C419.8,35.8,420.1,35.9,420.4,36C420.4,36,420.5,36,420.4,36"/>
		<g>
			<rect x="381.1" y="60.8" class="st0" width="0.7" height="0.7"/>
			<path class="st0" d="M426.4,60.1v-4.4h-0.7v3.8h-2.5v-3.8h-0.7v3.8H420v-3.8h-1c-0.4,0-0.8,0.1-1.1,0.2c-0.3,0.1-0.6,0.3-0.9,0.5
				c-0.2,0.2-0.4,0.4-0.5,0.7c-0.1,0.3-0.2,0.6-0.2,0.9c0,0.4,0.1,0.7,0.2,1c0.1,0.3,0.3,0.5,0.6,0.7c0.2,0.2,0.5,0.3,0.9,0.4
				c0.3,0.1,0.7,0.1,1,0.1H426.4z M418,59.3c-0.2-0.1-0.4-0.2-0.6-0.3s-0.3-0.3-0.4-0.5c-0.1-0.2-0.1-0.4-0.1-0.7
				c0-0.2,0.1-0.4,0.2-0.6c0.1-0.2,0.2-0.4,0.4-0.5c0.2-0.1,0.4-0.2,0.6-0.3c0.2-0.1,0.4-0.1,0.7-0.1h0.6v3.1h-0.6
				C418.5,59.4,418.2,59.4,418,59.3z"/>
			<rect x="412.4" y="54.2" class="st0" width="0.7" height="5.9"/>
			<rect x="419.3" y="54.2" class="st0" width="0.7" height="0.7"/>
			<rect x="425.7" y="60.8" class="st0" width="0.7" height="0.7"/>
			<rect x="382.2" y="60.8" class="st0" width="0.7" height="0.7"/>
			<path class="st0" d="M409.8,59.4h-1.1c-0.4,0-0.7-0.1-0.9-0.2c-0.2-0.1-0.4-0.3-0.5-0.5c0-0.2,0.1-0.4,0.1-0.6V56h-0.7v2.2
				c0,0.4-0.1,0.7-0.3,0.9c-0.2,0.2-0.5,0.3-0.9,0.3c-0.2,0-0.4,0-0.5-0.1c-0.2-0.1-0.3-0.1-0.4-0.2c-0.1-0.1-0.2-0.2-0.3-0.4
				c-0.1-0.1-0.1-0.3-0.1-0.4V56h-0.7v2.3c0,0.2,0,0.4-0.1,0.5c-0.1,0.1-0.1,0.3-0.2,0.3c-0.1,0.1-0.2,0.2-0.4,0.2
				c-0.1,0-0.3,0.1-0.4,0.1h-1.3V56h-0.7v3.4H397l1.1-2.7c-0.2-0.2-0.4-0.3-0.6-0.4c-0.2-0.1-0.4-0.3-0.6-0.4
				c-0.2-0.1-0.4-0.2-0.6-0.2c-0.2-0.1-0.4-0.1-0.6-0.1c-0.2,0-0.4,0-0.6,0.1c-0.2,0.1-0.4,0.1-0.6,0.2c-0.2,0.1-0.4,0.2-0.6,0.4
				c-0.2,0.1-0.4,0.3-0.5,0.4l1.2,2.7h-2.3v-3.8h-1.1c-0.4,0-0.8,0.1-1.1,0.2c-0.3,0.1-0.6,0.3-0.9,0.5c-0.2,0.2-0.4,0.4-0.6,0.7
				c-0.1,0.3-0.2,0.6-0.2,0.9c0,0.4,0.1,0.7,0.2,1c0.1,0.3,0.3,0.5,0.6,0.7c0.2,0.2,0.5,0.3,0.9,0.4c0.3,0.1,0.7,0.1,1,0.1h0.4v0.2
				c0,0.3-0.1,0.6-0.3,0.7c-0.2,0.1-0.5,0.2-0.8,0.2c-0.2,0-0.4,0-0.5-0.1c-0.2,0-0.3-0.1-0.6-0.2l-0.2,0.6c0.3,0.1,0.5,0.2,0.7,0.2
				c0.2,0,0.4,0.1,0.6,0.1c0.6,0,1.1-0.2,1.4-0.5c0.3-0.3,0.4-0.7,0.4-1.2v-0.1h10.2c0.3,0,0.6-0.1,0.8-0.2c0.2-0.1,0.4-0.3,0.6-0.5
				c0.2,0.3,0.4,0.5,0.6,0.6c0.3,0.1,0.6,0.2,1,0.2c0.4,0,0.7-0.1,1-0.2c0.3-0.1,0.5-0.3,0.6-0.6c0.1,0.1,0.1,0.2,0.2,0.3
				c0.1,0.1,0.2,0.2,0.3,0.2c0.1,0.1,0.3,0.1,0.5,0.2c0.1,0,0.3,0,0.5,0.1v0h1.9v-5.9h-0.7V59.4z M391.6,59.4h-0.7
				c-0.2,0-0.5,0-0.7-0.1c-0.2-0.1-0.4-0.2-0.6-0.3c-0.2-0.1-0.3-0.3-0.4-0.5c-0.1-0.2-0.1-0.4-0.1-0.7c0-0.2,0.1-0.5,0.2-0.6
				c0.1-0.2,0.2-0.4,0.4-0.5c0.2-0.1,0.4-0.2,0.6-0.3c0.2-0.1,0.4-0.1,0.7-0.1h0.7V59.4z M395.2,59.4l-1-2.5
				c0.3-0.2,0.5-0.4,0.8-0.5c0.3-0.1,0.5-0.1,0.8-0.1c0.3,0,0.6,0.1,0.9,0.2c0.3,0.1,0.5,0.3,0.7,0.4l-1,2.5H395.2z"/>
			<rect x="378.8" y="54.2" class="st0" width="0.7" height="0.7"/>
			<rect x="445.2" y="54.2" class="st0" width="0.7" height="0.7"/>
			<rect x="439.4" y="54.2" class="st0" width="0.7" height="5.9"/>
			<rect x="418.2" y="54.2" class="st0" width="0.7" height="0.7"/>
			<path class="st0" d="M387.4,57.5c0-0.3,0-0.5-0.1-0.7c-0.1-0.2-0.2-0.4-0.3-0.6c-0.2-0.2-0.4-0.3-0.6-0.4
				c-0.2-0.1-0.5-0.1-0.8-0.1h-0.5v0.7h0.6c0.2,0,0.3,0,0.5,0.1c0.1,0.1,0.3,0.2,0.4,0.3c0.1,0.1,0.2,0.2,0.2,0.4
				c0,0.1,0.1,0.3,0.1,0.5v1.9h-3.1v0.7h3.7V57.5z"/>
			<rect x="474.1" y="54.2" class="st0" width="0.7" height="5.9"/>
			<rect x="446.3" y="54.2" class="st0" width="0.7" height="0.7"/>
			<path class="st0" d="M472.2,54.2h-0.7v5.2h-2.3c0.1-0.3,0.2-0.6,0.2-1c0-0.3-0.1-0.7-0.2-0.9c-0.1-0.3-0.3-0.5-0.5-0.8
				c-0.2-0.2-0.5-0.4-0.8-0.5c-0.3-0.1-0.6-0.2-0.9-0.2c-0.3,0-0.6,0.1-0.9,0.2c-0.3,0.1-0.5,0.3-0.7,0.5c-0.2,0.2-0.4,0.5-0.5,0.8
				c-0.1,0.3-0.2,0.6-0.2,0.9c0,0.2,0,0.3,0.1,0.5c0,0.2,0.1,0.3,0.1,0.5h-2c0.1-0.3,0.2-0.6,0.2-1c0-0.3-0.1-0.7-0.2-0.9
				c-0.1-0.3-0.3-0.5-0.5-0.8c-0.2-0.2-0.5-0.4-0.8-0.5c-0.3-0.1-0.6-0.2-0.9-0.2c-0.3,0-0.6,0.1-0.9,0.2c-0.3,0.1-0.5,0.3-0.7,0.5
				c-0.2,0.2-0.4,0.5-0.5,0.8c-0.1,0.3-0.2,0.6-0.2,0.9c0,0.2,0,0.3,0.1,0.5c0,0.2,0.1,0.3,0.1,0.5h-2.1v-5.2h-0.7v5.2h-2.1v-1
				c0-0.3,0-0.5-0.1-0.7c-0.1-0.2-0.2-0.4-0.3-0.6c-0.2-0.2-0.4-0.3-0.6-0.4c-0.2-0.1-0.5-0.1-0.8-0.1h-2.9l1.2-2.4h-0.7l-1.3,2.4
				c0,0.1,0.1,0.3,0.1,0.4c0,0.1,0.1,0.2,0.2,0.3h3.3c0.2,0,0.4,0,0.5,0.1c0.2,0.1,0.3,0.1,0.4,0.3c0.1,0.1,0.2,0.2,0.2,0.4
				c0,0.1,0,0.3,0,0.5v1H447v-3.8h-1c-0.4,0-0.8,0.1-1.1,0.2c-0.3,0.1-0.6,0.3-0.9,0.5c-0.2,0.2-0.4,0.4-0.5,0.7
				c-0.1,0.3-0.2,0.6-0.2,0.9c0,0.4,0.1,0.7,0.2,1c0.1,0.3,0.3,0.5,0.6,0.7c0.2,0.2,0.5,0.3,0.9,0.4c0.3,0.1,0.7,0.1,1,0.1h13
				c0.2,0.2,0.5,0.4,0.8,0.5c0.3,0.1,0.6,0.2,1,0.2c0.4,0,0.7-0.1,1-0.2c0.3-0.1,0.6-0.3,0.8-0.5h2.9c0.2,0.2,0.5,0.4,0.8,0.5
				c0.3,0.1,0.6,0.2,1,0.2c0.3,0,0.7-0.1,1-0.2c0.3-0.1,0.6-0.3,0.8-0.5h3.3V54.2z M446.4,59.4h-0.6c-0.2,0-0.5,0-0.7-0.1
				c-0.2-0.1-0.4-0.2-0.6-0.3s-0.3-0.3-0.4-0.5c-0.1-0.2-0.1-0.4-0.1-0.7c0-0.2,0.1-0.4,0.2-0.6c0.1-0.2,0.2-0.4,0.4-0.5
				c0.2-0.1,0.4-0.2,0.6-0.3c0.2-0.1,0.4-0.1,0.7-0.1h0.6V59.4z M462.3,59.1c-0.1,0.2-0.2,0.4-0.4,0.5c-0.2,0.2-0.3,0.3-0.5,0.4
				c-0.2,0.1-0.4,0.1-0.7,0.1c-0.2,0-0.5,0-0.7-0.1c-0.2-0.1-0.4-0.2-0.5-0.4c-0.2-0.2-0.3-0.3-0.4-0.5c-0.1-0.2-0.1-0.4-0.1-0.7
				c0-0.2,0-0.5,0.1-0.7c0.1-0.2,0.2-0.4,0.3-0.5c0.1-0.2,0.3-0.3,0.5-0.4c0.2-0.1,0.4-0.1,0.7-0.1c0.3,0,0.5,0,0.7,0.1
				c0.2,0.1,0.4,0.2,0.5,0.4c0.2,0.2,0.3,0.3,0.4,0.5c0.1,0.2,0.1,0.4,0.1,0.7C462.5,58.7,462.4,58.9,462.3,59.1z M468.7,59.1
				c-0.1,0.2-0.2,0.4-0.4,0.5c-0.2,0.2-0.3,0.3-0.5,0.4c-0.2,0.1-0.4,0.1-0.7,0.1c-0.2,0-0.5,0-0.7-0.1c-0.2-0.1-0.4-0.2-0.5-0.4
				c-0.2-0.2-0.3-0.3-0.4-0.5c-0.1-0.2-0.1-0.4-0.1-0.7c0-0.2,0-0.5,0.1-0.7s0.2-0.4,0.3-0.5c0.1-0.2,0.3-0.3,0.5-0.4
				c0.2-0.1,0.4-0.1,0.7-0.1c0.3,0,0.5,0,0.7,0.1c0.2,0.1,0.4,0.2,0.5,0.4c0.2,0.2,0.3,0.3,0.4,0.5s0.1,0.4,0.1,0.7
				C468.8,58.7,468.8,58.9,468.7,59.1z"/>
			<path class="st0" d="M377.4,59.9c0.3,0.1,0.7,0.1,1,0.1h4.3v-4.4h-0.7v3.8h-2.6v-3.8h-1c-0.4,0-0.8,0.1-1.1,0.2
				c-0.3,0.1-0.6,0.3-0.9,0.5c-0.2,0.2-0.4,0.4-0.5,0.7c-0.1,0.3-0.2,0.6-0.2,0.9c0,0.4,0.1,0.7,0.2,1c0.1,0.3,0.3,0.5,0.6,0.7
				C376.8,59.7,377.1,59.8,377.4,59.9z M376.4,57.8c0-0.2,0.1-0.4,0.2-0.6c0.1-0.2,0.2-0.4,0.4-0.5c0.2-0.1,0.4-0.2,0.6-0.3
				c0.2-0.1,0.4-0.1,0.7-0.1h0.6v3.1h-0.6c-0.2,0-0.5,0-0.7-0.1c-0.2-0.1-0.4-0.2-0.6-0.3c-0.2-0.1-0.3-0.3-0.4-0.5
				C376.4,58.3,376.4,58.1,376.4,57.8z"/>
			<rect x="423.3" y="60.8" class="st0" width="0.7" height="0.7"/>
			<rect x="422.2" y="60.8" class="st0" width="0.7" height="0.7"/>
			<path class="st0" d="M429,60.9c0-0.2,0.1-0.4,0.1-0.7v-0.1h8.4v-5.9h-0.7v5.2H434l1.1-2.7c-0.2-0.2-0.4-0.3-0.6-0.4
				c-0.2-0.1-0.4-0.3-0.6-0.4c-0.2-0.1-0.4-0.2-0.6-0.2c-0.2-0.1-0.4-0.1-0.6-0.1c-0.2,0-0.4,0-0.6,0.1c-0.2,0.1-0.4,0.1-0.6,0.2
				c-0.2,0.1-0.4,0.2-0.6,0.4c-0.2,0.1-0.4,0.3-0.5,0.4l1.2,2.7H429v-3.8h-0.7v4.6c0,0.2,0,0.3,0,0.5c0,0.1-0.1,0.2-0.1,0.3
				c0,0.1-0.1,0.1-0.2,0.2c-0.1,0-0.2,0.1-0.3,0.1c-0.1,0-0.1,0-0.2,0c0,0-0.1,0-0.2,0l-0.2,0.6c0.2,0,0.4,0.1,0.5,0.1
				c0.2,0,0.4,0,0.6-0.1c0.2-0.1,0.3-0.2,0.4-0.3C428.9,61.3,428.9,61.1,429,60.9z M431.1,56.9c0.3-0.2,0.5-0.4,0.8-0.5
				c0.3-0.1,0.5-0.1,0.8-0.1c0.3,0,0.6,0.1,0.9,0.2c0.3,0.1,0.5,0.3,0.7,0.4l-1,2.5h-1.2L431.1,56.9z"/>
			<rect x="377.7" y="54.2" class="st0" width="0.7" height="0.7"/>
			<polygon class="st0" points="380.5,64.4 379.4,64.4 377.2,66.7 377.2,64.4 376.4,64.4 376.4,69 377.2,69 377.2,67.7 377.9,66.9 
				379.5,69 380.5,69 378.5,66.4 			"/>
			<rect x="381.3" y="64.4" class="st0" width="0.8" height="4.7"/>
			<polygon class="st0" points="386.7,67.6 384.1,64.4 383.4,64.4 383.4,69 384.2,69 384.2,65.7 386.8,69 387.5,69 387.5,64.4 
				386.7,64.4 			"/>
			<path class="st0" d="M390.9,67.1h1.2V68c-0.3,0.2-0.7,0.4-1.1,0.4c-1,0-1.6-0.7-1.6-1.7v0c0-0.9,0.7-1.7,1.5-1.7
				c0.6,0,1,0.2,1.3,0.5l0.5-0.6c-0.5-0.4-1-0.6-1.8-0.6c-1.4,0-2.4,1.1-2.4,2.4v0c0,1.4,1,2.4,2.4,2.4c0.8,0,1.5-0.3,2-0.7v-2h-2
				V67.1z"/>
			<path class="st0" d="M395.8,64.4H394V69h1.7c1.5,0,2.5-1,2.5-2.3v0C398.3,65.4,397.2,64.4,395.8,64.4z M397.4,66.7
				c0,0.9-0.6,1.6-1.6,1.6h-0.9v-3.2h0.9C396.7,65.1,397.4,65.8,397.4,66.7L397.4,66.7z"/>
			<path class="st0" d="M401.5,64.3c-1.4,0-2.5,1.1-2.5,2.4v0c0,1.3,1,2.4,2.4,2.4c1.4,0,2.5-1.1,2.5-2.4v0
				C403.9,65.4,402.9,64.3,401.5,64.3z M403.1,66.7c0,0.9-0.6,1.7-1.6,1.7c-0.9,0-1.6-0.8-1.6-1.7v0c0-0.9,0.6-1.7,1.6-1.7
				C402.4,65,403.1,65.8,403.1,66.7L403.1,66.7z"/>
			<polygon class="st0" points="407.3,66.6 405.8,64.4 405,64.4 405,69 405.8,69 405.8,65.7 407.2,67.9 407.3,67.9 408.7,65.7 
				408.7,69 409.6,69 409.6,64.4 408.7,64.4 			"/>
			<path class="st0" d="M415,64.3c-1.4,0-2.5,1.1-2.5,2.4v0c0,1.3,1,2.4,2.4,2.4c1.4,0,2.5-1.1,2.5-2.4v0
				C417.5,65.4,416.5,64.3,415,64.3z M416.6,66.7c0,0.9-0.6,1.7-1.6,1.7c-0.9,0-1.6-0.8-1.6-1.7v0c0-0.9,0.6-1.7,1.6-1.7
				C415.9,65,416.6,65.8,416.6,66.7L416.6,66.7z"/>
			<polygon class="st0" points="418.5,69 419.3,69 419.3,67.1 421.7,67.1 421.7,66.4 419.3,66.4 419.3,65.1 422,65.1 422,64.4 
				418.5,64.4 			"/>
			<path class="st0" d="M426.7,66.3c-0.9-0.2-1.1-0.4-1.1-0.7v0c0-0.3,0.3-0.6,0.8-0.6c0.4,0,0.9,0.2,1.3,0.5l0.4-0.6
				c-0.5-0.4-1-0.6-1.7-0.6c-0.9,0-1.6,0.6-1.6,1.4v0c0,0.9,0.6,1.2,1.6,1.4c0.9,0.2,1.1,0.4,1.1,0.7v0c0,0.4-0.3,0.6-0.8,0.6
				c-0.6,0-1-0.2-1.5-0.6l-0.5,0.6c0.6,0.5,1.2,0.7,2,0.7c1,0,1.7-0.5,1.7-1.4v0C428.2,66.9,427.7,66.6,426.7,66.3z"/>
			<path class="st0" d="M430.7,64.3l-2.1,4.7h0.8l0.5-1.1h2.2l0.5,1.1h0.9l-2.1-4.7H430.7z M430.3,67.2l0.8-1.9l0.8,1.9H430.3z"/>
			<path class="st0" d="M437.2,67.1c0,0.9-0.4,1.3-1.2,1.3c-0.7,0-1.2-0.5-1.2-1.3v-2.7h-0.8v2.7c0,1.4,0.8,2.1,2,2.1
				c1.2,0,2-0.7,2-2.1v-2.7h-0.8V67.1z"/>
			<path class="st0" d="M441,64.4h-1.7V69h1.7c1.5,0,2.5-1,2.5-2.3v0C443.5,65.4,442.5,64.4,441,64.4z M442.6,66.7
				c0,0.9-0.6,1.6-1.6,1.6h-0.9v-3.2h0.9C442,65.1,442.6,65.8,442.6,66.7L442.6,66.7z"/>
			<rect x="444.6" y="64.4" class="st0" width="0.8" height="4.7"/>
			<path class="st0" d="M450.3,64.3l-2.1,4.7h0.8l0.5-1.1h2.2l0.5,1.1h0.9l-2.1-4.7H450.3z M449.9,67.2l0.8-1.9l0.8,1.9H449.9z"/>
			<path class="st0" d="M457.7,65.8L457.7,65.8c0-0.4-0.1-0.8-0.4-1c-0.3-0.3-0.8-0.5-1.4-0.5h-2.1V69h0.8v-1.6h1h0l1.2,1.6h1
				l-1.3-1.8C457.3,67.1,457.7,66.6,457.7,65.8z M454.7,66.7v-1.6h1.2c0.6,0,1,0.3,1,0.8v0c0,0.5-0.4,0.8-1,0.8H454.7z"/>
			<path class="st0" d="M460.6,64.3l-2.1,4.7h0.8l0.5-1.1h2.2l0.5,1.1h0.9l-2.1-4.7H460.6z M460.1,67.2l0.8-1.9l0.8,1.9H460.1z"/>
			<path class="st0" d="M467.1,66.6c0.3-0.2,0.7-0.5,0.7-1v0c0-0.3-0.1-0.6-0.3-0.8c-0.3-0.3-0.7-0.4-1.2-0.4h-2.1V69h2.2
				c1,0,1.7-0.4,1.7-1.3v0C468.1,67.1,467.7,66.8,467.1,66.6z M465,65.1h1.2c0.5,0,0.8,0.2,0.8,0.6v0c0,0.4-0.4,0.6-0.9,0.6H465
				V65.1z M467.2,67.7c0,0.4-0.3,0.6-0.9,0.6H465V67h1.3C466.9,67,467.2,67.3,467.2,67.7L467.2,67.7z"/>
			<rect x="469.1" y="64.4" class="st0" width="0.8" height="4.7"/>
			<path class="st0" d="M473.5,64.3h-0.8l-2.1,4.7h0.8l0.5-1.1h2.2l0.5,1.1h0.9L473.5,64.3z M472.3,67.2l0.8-1.9l0.8,1.9H472.3z"/>
		</g>
	</g>
	<g>
		<g>
			<path class="st0" d="M35.1,29.5c0,0.4-0.1,0.7-0.3,1c-0.2,0.2-0.6,0.3-1,0.3h-1h-0.6H25c-1.7,0-2.5-0.9-2.5-2.7V28
				c0-1.8,0.8-2.7,2.5-2.7l1.1,0h2.3v-2.4l-3.4,0c-1.4,0-2.5,0.5-3.5,1.5c-1,1-1.5,2.3-1.5,3.7c0,1,0.2,1.9,0.7,2.7h-2.9h-0.6H15
				V17.7l0-0.6c-1.2,0-2.2,0-2.8,0v13.7H9.5l-0.6-4c-0.1-0.5-0.2-1.2-0.3-2.1c-0.1-0.9-0.2-1.5-0.3-1.8H5.4l1.2,7.9H2.6v2.3h14.6
				h0.6h14.4h0.6h1.2c2.6,0,4-1.3,4-3.9V17.1h-2.9V29.5z"/>
			<rect x="40.5" y="17.1" class="st0" width="2.8" height="16"/>
			<path class="st0" d="M53.2,20.7c1,0,1.5-0.5,1.5-1.5c0-1-0.5-1.5-1.6-1.5c-1,0-1.4,0.5-1.5,1.5C51.7,20.2,52.2,20.7,53.2,20.7"/>
			<path class="st0" d="M57.2,20.7c1,0,1.5-0.5,1.5-1.5c0-1-0.5-1.5-1.6-1.5c-1,0-1.4,0.5-1.5,1.5C55.7,20.2,56.2,20.7,57.2,20.7"/>
			<path class="st0" d="M73,20.7c1,0,1.5-0.5,1.5-1.5c0-1-0.5-1.5-1.6-1.5c-1,0-1.5,0.5-1.5,1.5C71.5,20.2,72,20.7,73,20.7"/>
			<path class="st0" d="M91.9,20.7c1,0,1.5-0.5,1.5-1.5c0-1-0.5-1.5-1.6-1.5c-1,0-1.4,0.5-1.5,1.5C90.4,20.2,90.9,20.7,91.9,20.7"/>
			<path class="st0" d="M87.7,24.4c-1,1-1.5,2.2-1.5,3.7c0,1,0.2,1.9,0.7,2.7h-3h-0.6h-2.2v-0.5c0-1.9-0.1-3.2-0.4-4
				c-0.7-1.9-2-2.9-4-3.2c-0.5-0.1-1.3-0.1-2.5-0.1h-2.4c-1,0-1.8,0-2.5,0.1c-0.8,0.1-1.6,0.4-2.2,0.8v-6.8h-2.9v13.7h-1.9h-1h-1.9
				v-7.9l-5,0c-1.4,0-2.5,0.5-3.5,1.5c-1,1-1.5,2.3-1.5,3.7c0,3.4,1.7,5,5,5h6.9h1h21H84h12.2V22.9l-5,0
				C89.9,22.9,88.7,23.4,87.7,24.4 M54.4,30.8c-1.7,0-2.5-0.9-2.5-2.7V28c0-1.8,0.8-2.7,2.5-2.7l1,0H57l0,5.5H54.4z M67.2,30.8
				c0-1.5,0.1-2.4,0.1-2.7c0.3-1.2,1.1-2,2.2-2.4c0.3-0.1,0.7-0.1,1.2-0.2c0.6,0,1.4,0,2.2,0c0.9,0,1.6,0,2.2,0
				c0.5,0,0.9,0.1,1.2,0.2c1.2,0.3,1.9,1.1,2.2,2.4c0.1,0.3,0.1,1.2,0.1,2.7H67.2z M93.7,25.3l0,0.3l0,5.2h-2.5
				c-1.7,0-2.5-0.9-2.5-2.6V28c0-1.8,0.8-2.7,2.5-2.7l1,0H93.7z"/>
			<path class="st0" d="M134,29.5c0,0.4-0.1,0.7-0.3,1c-0.2,0.2-0.6,0.3-1,0.3h-1c-0.7,0-1.2,0-1.6,0c-0.6-0.1-0.9-0.4-1-0.9
				c0.1-0.5,0.2-1.1,0.2-1.6c0-1.5-0.5-2.7-1.5-3.7c-1-1-2.2-1.5-3.5-1.5c-1.4,0-2.6,0.5-3.5,1.5c-1,1-1.5,2.3-1.5,3.7
				c0,0.5,0.1,1,0.2,1.5c-0.1,0.5-0.5,0.9-1.1,1c0,0-0.6,0-1.6,0h-2.2v-0.5c0-1.9-0.1-3.2-0.4-4c-0.7-1.9-2-2.9-4-3.2
				c-0.6-0.1-1.4-0.1-2.5-0.1H106v2.6c0.1,0,0.2,0,0.5,0c0.3,0,0.6,0,0.9,0c0.3,0,0.6,0,0.8,0c0.2,0,0.4,0,0.5,0
				c0.5,0,0.9,0.1,1.2,0.2c1.2,0.3,1.9,1.1,2.2,2.4c0.1,0.3,0.1,1.2,0.1,2.7h-8.5h-0.6h-2.3V17.1H98v16h5.1h0.6H117h0.6h0.6
				c1,0,1.8-0.3,2.4-1l0.3-0.2l-0.1-0.1c1,1.1,2.2,1.7,3.7,1.7c1.4,0,2.6-0.5,3.5-1.6l0.2,0.2c0.6,0.7,1.4,1,2.4,1h0.6h0.6h1.2
				c2.6,0,4-1.3,4-3.9V17.1H134V29.5z M124.4,31.3c-1.3,0-1.9-1-1.9-3c0-2,0.6-3,1.9-3c1.3,0,1.9,1,1.9,3
				C126.3,30.2,125.6,31.3,124.4,31.3"/>
			<path class="st0" d="M145.3,19.2c0,1,0.5,1.5,1.5,1.5c1,0,1.5-0.5,1.5-1.5c0-1-0.5-1.5-1.6-1.5C145.8,17.7,145.3,18.2,145.3,19.2
				"/>
			<path class="st0" d="M149.2,19.2c0,1,0.5,1.5,1.5,1.5c1,0,1.5-0.5,1.5-1.5c0-1-0.5-1.5-1.6-1.5C149.7,17.7,149.2,18.2,149.2,19.2
				"/>
			<path class="st0" d="M159.1,35.1c-1,0-1.5,0.5-1.5,1.5c0,1,0.5,1.5,1.5,1.5c1,0,1.5-0.5,1.5-1.5
				C160.6,35.6,160.1,35.1,159.1,35.1"/>
			<path class="st0" d="M163,35.1c-1,0-1.5,0.5-1.5,1.5c0,1,0.5,1.5,1.5,1.5c1,0,1.5-0.5,1.5-1.5C164.6,35.6,164,35.1,163,35.1"/>
			<path class="st0" d="M210.7,33.1c2.6,0,4-1.3,4-3.9V17.1h-2.9v12.3c0,0.4-0.1,0.7-0.4,1c-0.2,0.2-0.6,0.3-1,0.3h-1
				c-0.7,0-1.2,0-1.6,0c-0.6-0.1-0.9-0.4-1.1-0.9c0.1-0.5,0.2-1.1,0.2-1.6c0-1.5-0.5-2.7-1.5-3.7c-1-1-2.2-1.5-3.5-1.5
				c-1.4,0-2.6,0.5-3.5,1.5c-1,1-1.5,2.3-1.5,3.7c0,0.5,0.1,1,0.2,1.5c-0.1,0.5-0.5,0.9-1.1,1c0,0-0.6,0-1.6,0h-2.3V17.1h-2.9v13.6
				h-2.3h-0.6h-2.3v-1.9c0-0.9-0.1-1.7-0.4-2.5c-0.7-2.1-2.1-3.2-4.3-3.4c0,0-0.2,0-0.3,0c-0.2,0-0.3,0-0.4,0v0H171c0-1,0-1.6,0.1-2
				c0.1-0.5,0.4-0.8,0.9-0.9c0.3-0.1,0.6-0.1,0.8-0.1h6.1v-2.8l-0.5,0h-5.9c-0.4,0-0.8,0-1.1,0.1c-1.4,0.4-2.2,1.3-2.6,2.7
				c-0.1,0.4-0.1,0.8-0.1,1.2l0,4.5c1.2,0,2.3,0,3.5,0c1,0,2.1,0,3.5,0h0.2l1.3,0h0h0h0h0h0h0h0h0h0l0,0h0h0h0h0h0h0h0h0h0h0h0h0h0
				h0h0h0h0h0h0h0h0h0h0h0h0h0h0h0h0h0h0h0h0h0h0h0h0h0h0h0h0l0,0h0h0h0h0h0h0h0h0h0h0h0h0h0h0h0h0h0h0h0c0.5,0,0.9,0.1,1.1,0.1
				c1.3,0.3,2.1,1.2,2.4,2.5c0.1,0.3,0.1,0.7,0.1,1.1v0.7l0,0.5h-16.4h-0.6h-2.3v-7.9h-2.9v7.9h-3.9h-1H153v-7.9l-5,0
				c-1.4,0-2.5,0.5-3.5,1.5c-1,1-1.5,2.3-1.5,3.7c0,3.4,1.7,5,5,5h6.9h1h9h0.6h21.1h0.6h7.4h0.6h0.6c1,0,1.8-0.3,2.4-1l0.3-0.2
				l-0.1-0.1c1,1.1,2.2,1.7,3.7,1.7c1.4,0,2.6-0.5,3.5-1.6l0.2,0.2c0.6,0.7,1.4,1,2.4,1h0.6h0.6H210.7z M148,30.8
				c-1.7,0-2.5-0.9-2.5-2.7V28c0-1.8,0.8-2.7,2.5-2.7l1,0h1.4l0,5.5H148z M202.1,31.3c-1.3,0-1.9-1-1.9-3c0-2,0.6-3,1.9-3
				c1.3,0,1.9,1,1.9,3C204,30.2,203.4,31.3,202.1,31.3"/>
			<rect x="217.2" y="17.1" class="st0" width="2.8" height="16"/>
			<path class="st0" d="M228.3,19.2c0,1,0.5,1.5,1.5,1.5c1,0,1.5-0.5,1.5-1.5c0-1-0.5-1.5-1.6-1.5C228.8,17.7,228.3,18.2,228.3,19.2
				"/>
			<path class="st0" d="M232.3,19.2c0,1,0.5,1.5,1.5,1.5c1,0,1.5-0.5,1.5-1.5c0-1-0.5-1.5-1.6-1.5C232.8,17.7,232.3,18.2,232.3,19.2
				"/>
			<path class="st0" d="M240.8,21h3.2v-1l-1.3,0c-0.3,0-0.4-0.1-0.5-0.4l0-0.3c0.1-0.3,0.2-0.5,0.5-0.5c0,0,0.2,0,0.6,0l0.2,0V18
				c-0.4-0.2-0.8-0.2-1.1-0.1c-1,0.2-1.4,0.8-1.1,1.8l0,0.3h-0.5V21z"/>
			<path class="st0" d="M248.7,36.7c0,1,0.5,1.5,1.5,1.5c1,0,1.5-0.5,1.5-1.5c0-1-0.5-1.5-1.6-1.5C249.2,35.2,248.7,35.7,248.7,36.7
				"/>
			<path class="st0" d="M252.7,36.7c0,1,0.5,1.5,1.5,1.5c1,0,1.5-0.5,1.5-1.5c0-1-0.5-1.5-1.6-1.5C253.2,35.2,252.7,35.7,252.7,36.7
				"/>
			<path class="st0" d="M246.7,33.1h9.4h0.6h15.7h0.6h1.2c2.6,0,4-1.3,4-3.9V17.1h-2.9v12.3c0,0.4-0.1,0.7-0.3,1
				c-0.2,0.2-0.6,0.3-1,0.3h-1.6v0l-2.3,0v-0.5c0-1.9-0.1-3.2-0.4-4c-0.7-1.9-2-3-4-3.3c-0.6-0.1-1.4-0.1-2.5-0.1h-1.7v2.8l0.5,0
				c-2.1,0.3-3.1,1.6-3.1,3.6c0,0.5,0.1,0.9,0.3,1.4h-2.5H256h-2.3v-7.9h-2.9v7.9h-4.2H246h-2.3v-7.9h-2.9v7.9h-2h-1h-1.9v-7.9l-5,0
				c-1.4,0-2.5,0.5-3.5,1.5c-1,1-1.5,2.3-1.5,3.7c0,3.4,1.7,5,5,5h6.9h1h7.1H246.7z M264.2,25.8c0.5,0,0.9,0.1,1.2,0.2
				c1.2,0.3,1.9,1.1,2.2,2.4c0.1,0.3,0.1,1.1,0.1,2.5h-1.7c0.2-0.4,0.3-0.9,0.3-1.4c0-2-1-3.2-3-3.6
				C263.8,25.8,264.1,25.8,264.2,25.8 M262.6,27.9c1,0,1.5,0.5,1.5,1.5c0,0.7-0.3,1.1-0.9,1.4H262c-0.6-0.3-0.9-0.7-0.9-1.4
				C261.1,28.4,261.6,27.9,262.6,27.9 M231.1,30.8c-1.7,0-2.5-0.9-2.5-2.6V28c0-1.8,0.8-2.7,2.5-2.7l1,0h1.4l0,5.5H231.1z"/>
			<rect x="280.7" y="17.1" class="st0" width="2.8" height="16"/>
			<path class="st0" d="M342.9,4.2h-41.5v65.1h41.5V4.2z M339.5,41.2C339.5,41.2,339.5,41.3,339.5,41.2c-0.8-0.1-1.5-0.3-2.2-0.4
				c-2.1-0.3-4.1-0.2-5.9,0.4c-0.9,0.3-1.7,0.6-2.6,1c-0.6,0.3-1.1,0.6-1.6,0.9c-0.4,0.2-0.8,0.5-1.2,0.7c-0.9,0.6-1.8,1.3-2.6,2
				c0.9,0.8,1.8,1.6,2.6,2.3c0.4,0.4,0.8,0.7,1.2,1c0.6,0.5,1.2,1,1.6,1.3c0.2,0.1,0.4,0.3,0.6,0.3c0.3-0.4,0.8-0.6,1.4-0.5
				c0.2,0.1,0.5,0.2,0.6,0.3c0.2,0.2,0.3,0.4,0.4,0.7c0.1,0.4-0.1,1-0.3,1.2c0,0-0.1,0.1-0.1,0.1c-0.7,0.6-1.6,0.6-2.6,0.1
				c-0.5-0.3-1-0.7-1.6-1.1c-0.4-0.3-0.8-0.6-1.2-1c-1-0.9-2-1.9-3.2-3c-0.2-0.2-0.4-0.4-0.7-0.6c-0.2,0.2-0.4,0.4-0.7,0.6
				c-2.6,2.4-4.7,4.6-6.4,5.3c-0.9,0.4-1.6,0.3-2.3-0.3c-0.2-0.2-0.4-0.7-0.3-1.2c0.1-0.5,0.5-0.9,1-1c0.6-0.1,1.1,0.1,1.4,0.5
				c0.1,0,0.1-0.1,0.2-0.1c1.3-0.7,3.3-2.8,5.8-4.9c-1.7-1.4-3.6-2.8-5.8-3.7c-1.5-0.7-3.1-1.2-4.8-1.3c-1.6-0.1-3.2,0-5,0.5
				c-0.1,0-0.3,0.1-0.4,0.1c-0.1,0-0.1-0.1,0-0.1c0.1-0.1,0.3-0.2,0.5-0.3c1-0.5,2.7-1.2,5-1.3c1.4-0.1,3.1,0.1,4.8,0.7
				c0.2,0.1,0.4,0.1,0.6,0.2c1.7,0.7,3.5,1.8,5.1,3c1-5.8,0.5-11.2,0.3-13.8c0,0,0,0,0,0c-2.1,1.3-1.5,4.9-1,5.9c0,0,0,0,0,0
				c-2.6-3-1.3-6.4-0.8-7.2c0,0,0,0,0,0c-2.3,1.9-2.2,4.3-2.1,5.7c0,0,0,0,0,0c-0.9-1.8-1.2-4.9,1.6-7.4c0,0,0,0,0,0
				c-2.5,0.6-3.6,3-3.6,4.8v0.1c0,0,0,0,0,0c-0.4-1.3-0.3-2.4,0-3.3c0.7-2,2.7-2.8,3.7-3c0,0,0,0,0,0c-1.9-0.2-3,0.4-3.7,1
				c-0.4,0.4-0.6,0.7-0.7,0.9c0,0,0,0,0,0c0.1-0.7,0.3-1.3,0.7-1.8c1.1-1.3,3.2-1.7,4.6-1.1c0,0,0,0,0,0c-0.9-1.3-2.7-1.4-3.6-1
				c0,0,0,0,0,0c1.4-1.6,3.7-1.6,4.9,0.2c0,0,0,0,0,0c0.1-0.2,0.3-0.5,0.4-0.8c0.3-0.7,0.5-1.4,0.6-2.1c0,0,0,0,0,0
				c0.1,0.7,0.4,1.5,0.6,2.1c0.1,0.3,0.2,0.5,0.4,0.8c0,0,0,0,0,0c0.7-1.1,1.8-1.5,2.8-1.4c0.4,0,0.8,0.2,1.2,0.4
				c0.4,0.2,0.7,0.5,1,0.8c0,0,0,0,0,0c-0.3-0.1-0.6-0.2-0.9-0.2c-0.4,0-0.8,0-1.2,0.1c-0.6,0.2-1.1,0.5-1.5,1c0,0,0,0,0,0
				C325,24,325.5,24,326,24c0.4,0,0.8,0.1,1.2,0.2c0.6,0.2,1.2,0.5,1.6,0.9c0.6,0.5,1,1.3,1.1,2.2c0,0,0,0,0,0
				c-0.1-0.2-0.4-0.7-1.1-1.2c-0.4-0.3-0.9-0.5-1.6-0.6c-0.3-0.1-0.7-0.1-1.2-0.1c-0.2,0-0.4,0-0.5,0c0,0,0,0,0,0
				c0.2,0,0.3,0.1,0.6,0.1c0.4,0.1,0.8,0.3,1.2,0.5c0.6,0.4,1.2,0.9,1.6,1.6c0.6,1,0.9,2.3,0.4,4.1c0,0,0,0,0,0c0-0.6-0.1-1.3-0.4-2
				c-0.3-0.8-0.8-1.6-1.6-2.2c-0.3-0.2-0.7-0.5-1.2-0.6c-0.1,0-0.3-0.1-0.4-0.1c0,0,0,0,0,0c0.2,0.1,0.3,0.3,0.5,0.4
				c0.5,0.5,0.9,1.1,1.2,1.6c1,2,0.7,4,0,5.4c0,0,0,0,0,0c0,0,0,0,0,0c0-0.1,0-0.2,0-0.3c0-0.4,0-0.9,0-1.4c-0.1-1-0.4-2.1-1.2-3.1
				c-0.3-0.3-0.6-0.6-0.9-0.9c0,0,0,0,0,0c0.5,0.8,1.8,4.2-0.8,7.2c0,0,0,0,0,0c0.4-1,1-4.6-1-5.9c0,0,0,0,0,0
				c-0.2,2.6-0.7,8,0.3,13.8c0.9-0.6,1.7-1.3,2.6-1.8c0.4-0.2,0.8-0.5,1.2-0.6c0.5-0.2,0.9-0.4,1.4-0.6c0.1,0,0.2-0.1,0.3-0.1
				c0.9-0.3,1.8-0.5,2.6-0.7c2.4-0.4,4.5,0,5.9,0.4C338.3,40.6,339.1,40.9,339.5,41.2"/>
			<path class="st0" d="M5.7,61H2.6V45.5h7.6c1.8,0,3,0.4,3.9,1.1c0.8,0.7,1.3,1.9,1.3,3.6c0,2.4-1,3.9-2.9,4.3L16,61h-3.5L9.3,55
				H5.7V61z M9.4,48.3H5.7v3.9h3.8c1,0,1.8-0.1,2.2-0.4c0.4-0.3,0.6-0.8,0.6-1.6c0-0.6-0.1-1.1-0.3-1.3
				C11.5,48.5,10.7,48.3,9.4,48.3"/>
			<path class="st0" d="M22.4,61.3c-2,0-3.5-0.7-4.5-2c-0.8-1.1-1.2-2.4-1.2-3.9c0-1.6,0.4-2.9,1.3-4c1-1.3,2.5-1.9,4.4-1.9
				c1.6,0,2.9,0.5,3.9,1.4c1.2,1.1,1.8,2.6,1.8,4.5c0,1.7-0.5,3.1-1.5,4.2C25.6,60.7,24.2,61.3,22.4,61.3 M22.4,58.8
				c0.7,0,1.3-0.2,1.8-0.7c0.7-0.6,1-1.5,1-2.8c0-1.1-0.3-2-0.8-2.6c-0.5-0.6-1.1-0.8-1.9-0.8c-0.8,0-1.5,0.3-2,0.9
				c-0.5,0.6-0.8,1.5-0.8,2.5c0,1,0.3,1.9,0.8,2.5C20.9,58.5,21.6,58.8,22.4,58.8"/>
			<path class="st0" d="M34.2,58.6h2.3v-8.9h2.8v11.1c0,2.9-1.3,4.4-4,4.4h-5.6v-2.3h5.1c1.1,0,1.7-0.6,1.7-1.8H34
				c-1.5,0-2.6-0.3-3.3-1c-0.8-0.7-1.1-1.8-1.1-3.4v-7h2.8v6.8c0,0.8,0.1,1.3,0.3,1.5C32.9,58.4,33.4,58.6,34.2,58.6"/>
			<path class="st0" d="M46.7,52h-4.8v-2.3h5.8c3,0,4.4,1.4,4.4,4.2V61h-7.6c-1,0-1.9-0.3-2.5-0.9c-0.6-0.6-0.9-1.4-0.9-2.5
				c0-1.4,0.4-2.4,1.3-2.9c0.7-0.4,1.7-0.6,3-0.6h3.8c0-0.8-0.2-1.3-0.6-1.6C48.4,52.2,47.7,52,46.7,52 M45.7,58.8h3.6v-2.4H46
				c-1.1,0-1.7,0.4-1.7,1.2c0,0.5,0.1,0.8,0.4,1C44.9,58.7,45.2,58.8,45.7,58.8"/>
			<rect x="54.5" y="45.5" class="st0" width="2.9" height="15.5"/>
			<path class="st0" d="M77.8,45.5v2.7h-5.1c-1.2,0-2,0.4-2.6,1.1c-0.7,0.9-1,2.4-1,4.5c0,1.9,0.3,3.2,1,3.8
				c0.5,0.5,1.4,0.7,2.6,0.7h5.1V61h-5.2c-4.6,0-6.9-2.5-6.9-7.5c0-2.6,0.5-4.5,1.5-5.8c1.1-1.5,3-2.2,5.5-2.2H77.8z"/>
			<path class="st0" d="M84.5,61.3c-2,0-3.5-0.7-4.5-2c-0.8-1.1-1.2-2.4-1.2-3.9c0-1.6,0.4-2.9,1.3-4c1-1.3,2.5-1.9,4.4-1.9
				c1.6,0,2.9,0.5,3.9,1.4c1.2,1.1,1.8,2.6,1.8,4.5c0,1.7-0.5,3.1-1.5,4.2C87.7,60.7,86.3,61.3,84.5,61.3 M84.5,58.8
				c0.7,0,1.3-0.2,1.8-0.7c0.6-0.6,1-1.5,1-2.8c0-1.1-0.3-2-0.8-2.6c-0.5-0.6-1.1-0.8-1.9-0.8c-0.8,0-1.5,0.3-2,0.9
				c-0.5,0.6-0.8,1.5-0.8,2.5c0,1,0.3,1.9,0.8,2.5C83,58.5,83.7,58.8,84.5,58.8"/>
			<path class="st0" d="M94.6,61h-2.8V49.7h10.9c1.5,0,2.6,0.3,3.3,0.9c0.8,0.6,1.2,1.7,1.2,3.3V61h-2.8v-6.8c0-0.7-0.1-1.3-0.3-1.6
				c-0.3-0.4-0.8-0.5-1.5-0.5c-0.2,0-0.4,0-0.7,0h-0.5c-0.2,0-0.3,0-0.4,0V61H98v-8.8h-3.3V61z"/>
			<path class="st0" d="M112.3,61h-2.8V49.7h10.9c1.5,0,2.6,0.3,3.3,0.9c0.8,0.6,1.2,1.7,1.2,3.3V61H122v-6.8c0-0.7-0.1-1.3-0.3-1.6
				c-0.3-0.4-0.8-0.5-1.5-0.5c-0.2,0-0.4,0-0.7,0H119c-0.2,0-0.3,0-0.4,0V61h-2.9v-8.8h-3.3V61z"/>
			<path class="st0" d="M127.2,61h2.9V49.7h-2.9V61z M127.2,48.3h2.9v-2.8h-2.9V48.3z"/>
			<path class="st0" d="M139.5,61h-7.3v-2.4h6c1,0,1.5-0.4,1.5-1.1c0-0.7-0.5-1.1-1.5-1.1h-2.5c-1.3,0-2.2-0.2-2.7-0.5
				c-0.7-0.4-1.1-1.3-1.1-2.7c0-2.4,1.3-3.6,3.8-3.6h6.1V52h-5c-0.7,0-1.2,0.1-1.5,0.2c-0.3,0.2-0.5,0.5-0.5,0.9
				c0,0.6,0.4,0.9,1.3,0.9h2.6c2.4,0,3.6,1.1,3.6,3.2c0,1.1-0.2,2-0.8,2.7C141.2,60.7,140.4,61,139.5,61"/>
			<path class="st0" d="M151.5,61h-7.3v-2.4h6c1,0,1.5-0.4,1.5-1.1c0-0.7-0.5-1.1-1.5-1.1h-2.5c-1.3,0-2.2-0.2-2.6-0.5
				c-0.7-0.4-1.1-1.3-1.1-2.7c0-2.4,1.3-3.6,3.8-3.6h6.1V52h-5c-0.7,0-1.2,0.1-1.5,0.2c-0.3,0.2-0.5,0.5-0.5,0.9
				c0,0.6,0.4,0.9,1.3,0.9h2.6c2.4,0,3.6,1.1,3.6,3.2c0,1.1-0.2,2-0.8,2.7C153.1,60.7,152.4,61,151.5,61"/>
			<path class="st0" d="M156.3,61h2.9V49.7h-2.9V61z M156.3,48.3h2.9v-2.8h-2.9V48.3z"/>
			<path class="st0" d="M166.5,61.3c-2,0-3.5-0.7-4.5-2c-0.8-1.1-1.2-2.4-1.2-3.9c0-1.6,0.4-2.9,1.3-4c1-1.3,2.5-1.9,4.4-1.9
				c1.6,0,2.9,0.5,3.9,1.4c1.2,1.1,1.8,2.6,1.8,4.5c0,1.7-0.5,3.1-1.5,4.2C169.7,60.7,168.3,61.3,166.5,61.3 M166.4,58.8
				c0.7,0,1.3-0.2,1.8-0.7c0.7-0.6,1-1.5,1-2.8c0-1.1-0.3-2-0.8-2.6c-0.5-0.6-1.1-0.8-1.9-0.8c-0.8,0-1.5,0.3-2,0.9
				c-0.5,0.6-0.8,1.5-0.8,2.5c0,1,0.3,1.9,0.8,2.5C165,58.5,165.6,58.8,166.4,58.8"/>
			<path class="st0" d="M176.5,61h-2.8V49.7h5.3c1.6,0,2.8,0.3,3.5,0.9c0.7,0.6,1.1,1.7,1.1,3.2V61h-2.9v-6.8c0-0.8-0.1-1.4-0.3-1.6
				c-0.2-0.3-0.7-0.4-1.5-0.4h-2.3V61z"/>
			<path class="st0" d="M196.4,61h-3v-9.1h-2v-2.3h2V49c0-1.3,0.1-2.2,0.4-2.6c0.4-0.6,1.2-0.9,2.6-0.9h2.7v2.2
				c-1.4,0-2.2,0-2.3,0.1c-0.3,0.1-0.4,0.6-0.4,1.4v0.4h2.7v2.3h-2.7V61z"/>
			<path class="st0" d="M205.3,61.3c-2,0-3.5-0.7-4.5-2c-0.8-1.1-1.2-2.4-1.2-3.9c0-1.6,0.4-2.9,1.3-4c1-1.3,2.5-1.9,4.4-1.9
				c1.6,0,2.9,0.5,3.9,1.4c1.2,1.1,1.8,2.6,1.8,4.5c0,1.7-0.5,3.1-1.5,4.2C208.5,60.7,207.1,61.3,205.3,61.3 M205.3,58.8
				c0.7,0,1.3-0.2,1.8-0.7c0.7-0.6,1-1.5,1-2.8c0-1.1-0.3-2-0.8-2.6c-0.5-0.6-1.1-0.8-1.9-0.8c-0.8,0-1.5,0.3-2,0.9
				c-0.5,0.6-0.8,1.5-0.8,2.5c0,1,0.3,1.9,0.8,2.5C203.8,58.5,204.5,58.8,205.3,58.8"/>
			<path class="st0" d="M215.4,61h-2.8V49.7h4.8c1.3,0,2.1,0.3,2.5,0.8c0.3,0.5,0.5,1.6,0.5,3.2v0.7h-2.7v-0.9
				c0-0.8-0.1-1.3-0.3-1.5c-0.2-0.1-0.8-0.2-2-0.2V61z"/>
			<path class="st0" d="M230.3,61H227l6.2-15.5h3.3l6.3,15.5h-3.4l-1.3-3.7h-6.4L230.3,61z M232.5,54.6h4.4l-2.2-5.9L232.5,54.6z"/>
			<rect x="243.2" y="45.5" class="st0" width="2.9" height="15.5"/>
		</g>
		<path class="st0" d="M249.7,54.9v-9.4h3.1v9.3c0,1.3,0.2,2.2,0.5,2.8c0.5,0.7,1.4,1.1,2.8,1.1c1.2,0,2-0.3,2.5-0.8
			c0.5-0.6,0.8-1.6,0.8-3.1v-9.3h3.1v9.4c0,2.2-0.4,3.7-1.1,4.6c-0.9,1.1-2.7,1.7-5.2,1.7c-2.5,0-4.2-0.5-5.2-1.6
			C250.1,58.6,249.7,57.1,249.7,54.9"/>
		<rect x="264.9" y="45.5" class="st0" width="2.9" height="15.5"/>
		<path class="st0" d="M275,52h-4.8v-2.3h5.8c3,0,4.4,1.4,4.4,4.2V61h-7.6c-1,0-1.8-0.3-2.4-0.9c-0.6-0.6-0.9-1.4-0.9-2.5
			c0-1.4,0.4-2.4,1.3-2.9c0.7-0.4,1.7-0.6,3-0.6h3.8c0-0.8-0.2-1.3-0.6-1.6C276.7,52.2,276,52,275,52 M274.1,58.8h3.6v-2.4h-3.4
			c-1.1,0-1.7,0.4-1.7,1.2c0,0.5,0.1,0.8,0.4,1C273.2,58.7,273.6,58.8,274.1,58.8"/>
	</g>
</g>
</svg>
